<svg width="23" height="23" viewBox="0 0 23 23" fill="none" xmlns="http://www.w3.org/2000/svg">
<path d="M20.6662 13.1852C21.4586 12.9046 22.2226 13.6675 21.9431 14.4603C21.3744 16.0739 20.4978 17.5062 19.3112 18.6886C14.893 23.1068 7.73193 23.1061 3.31447 18.6888C-1.10479 14.2721 -1.10479 7.10928 3.31425 2.6906C4.49871 1.50611 5.93138 0.62887 7.54168 0.0592254C8.33459 -0.221265 9.09851 0.542806 8.81787 1.33566C7.62409 4.70821 8.42409 8.46935 10.9782 11.0252C13.5322 13.5787 17.2953 14.379 20.6662 13.1852ZM9.56399 12.4394C6.98786 9.86165 5.87918 6.277 6.40121 2.79579C5.79147 3.16527 5.23163 3.60164 4.72845 4.10483C1.09055 7.74243 1.09055 13.6386 4.72846 17.2744C8.36513 20.9109 14.2599 20.9115 17.8982 17.2731C18.4025 16.7706 18.839 16.2114 19.2083 15.6016C15.727 16.1242 12.1403 15.0154 9.56399 12.4394Z" fill="white"/>
</svg>
